<?xml version="1.0" encoding="UTF-8"?>
<svg id="_图层_1" data-name="图层 1" xmlns="http://www.w3.org/2000/svg" viewBox="0 0 512 512">
  <defs>
    <style>
      .cls-1 {
        fill: #b3dcff;
      }

      .cls-2 {
        fill: #212121;
      }
    </style>
  </defs>
  <circle class="cls-1" cx="256" cy="256" r="256"/>
  <g>
    <path class="cls-2" d="M180.9,390.5l-45.95-.03c-.52,0-.94-.42-.94-.94v-45.73c0-.52,.42-.94,.94-.94l45.95-.02c.52,0,.94-.42,.94-.94h0s-.02-171.09-.02-171.09c0-.52-.42-.94-.94-.94h0l-46.63,.05c-.52,0-.94-.42-.94-.94l.02-44.36c0-.52,.42-.94,.94-.94h0l46.59-.05c.52,0,.94-.42,.94-.94h0l.03-46.78c0-.52,.42-.94,.94-.94l44.37,.02c.52,0,.94,.42,.94,.94h0s-.03,360.06-.03,360.06c0,.52-.42,.94-.94,.94h0l-44.36,.03c-.52,0-.94-.42-.94-.94l.02-44.62c0-.52-.42-.94-.94-.94Z"/>
    <path class="cls-2" d="M298.34,385.91l-.02,49.88c0,.51-.41,.92-.92,.92h0l-48.69,.09c-.38,0-.69-.31-.69-.69h0v-90.55c0-.45,.36-.82,.81-.83,11.48-.22,23.83-.24,37.07-.05,15.35,.21,27.99-6.79,33.74-21.29,6.81-17.18-3.1-37.1-20.65-42.59-3.91-1.22-8.73-1.78-14.45-1.68-12.21,.22-24.18,.22-35.92,0-.36,0-.64-.3-.64-.66l.02-42.75c0-.66,.33-.99,.99-.99,13.29-.05,26.55-.08,39.79-.09,27.42-.03,41.83-30.14,26.69-51.79-7.24-10.34-18.1-13.93-30.76-13.72-12.02,.2-23.93,.19-35.73-.02-.67-.01-1-.35-1-1.02V78.63c0-.48,.39-.87,.87-.87l48.86-.05c.35,0,.64,.29,.64,.66l-.02,45.19c0,.55,.45,.99,1,.99h0c8.73-.03,18.08-.31,26.93,1.35,47.01,8.82,67.48,65.97,40.15,104.32-7.78,10.93-18.78,19.33-31.58,23.68-1.29,.45-1.3,.91-.02,1.39,25.1,9.34,42.19,31.49,43.6,58.27,.51,9.77-.54,18.54-3.13,26.33-7.47,22.31-25.93,38.71-48.9,43.49-8.75,1.82-17.87,1.39-26.81,1.33-.82-.01-1.23,.39-1.23,1.21Z"/>
  </g>
</svg>