<?xml version="1.0" encoding="UTF-8"?>
<svg id="_图层_1" data-name="图层 1" xmlns="http://www.w3.org/2000/svg" viewBox="0 0 2009 400">
  <defs>
    <style>
      .cls-1 {
        fill: #b3dcff;
      }
    </style>
  </defs>
  <path class="cls-1" d="M199.73,.31C89.28,.31-.27,89.85-.27,200.31s89.54,200,200,200,200-89.54,200-200S310.19,.31,199.73,.31Zm-21.81,59.35l-.03,281.3c0,.4-.33,.73-.73,.73l-34.65,.03c-.4,0-.73-.33-.73-.73v-34.86c.01-.4-.31-.73-.72-.73l-35.9-.03c-.4,0-.73-.33-.73-.73v-35.72c0-.4,.33-.73,.73-.73h35.9c.4-.01,.73-.34,.73-.74V133.77c-.01-.4-.34-.73-.74-.73l-36.43,.04c-.4,0-.73-.33-.73-.73v-34.65c.01-.4,.34-.73,.74-.73l36.4-.04c.4,0,.73-.33,.73-.73l.03-36.55c0-.4,.33-.73,.73-.73h34.67c.4,.01,.73,.34,.73,.74h0Zm83.38,140.09c19.61,7.29,32.96,24.6,34.06,45.52,.4,7.63-.42,14.49-2.45,20.57-5.83,17.43-20.26,30.24-38.2,33.98-6.83,1.42-13.96,1.08-20.95,1.04-.64,0-.96,.31-.96,.95v38.97c-.01,.4-.33,.72-.73,.72l-38.04,.07c-.3,0-.54-.24-.54-.54v-70.74c0-.35,.28-.64,.64-.65,8.97-.17,18.62-.19,28.96-.04,11.99,.16,21.87-5.3,26.36-16.63,5.32-13.42-2.42-28.98-16.13-33.27-3.06-.96-6.82-1.39-11.29-1.31-9.54,.17-18.89,.17-28.06,0-.28,0-.5-.24-.5-.51v-33.4c.01-.51,.27-.77,.78-.77,10.38-.04,20.74-.06,31.08-.07,21.42-.03,32.68-23.54,20.85-40.46-5.66-8.08-14.14-10.88-24.03-10.72-9.39,.15-18.7,.15-27.92-.01-.52,0-.78-.28-.78-.8V61.74c0-.37,.3-.68,.68-.68l38.17-.04c.28,0,.5,.23,.5,.51v35.3c-.01,.43,.34,.77,.77,.77,6.82-.03,14.13-.24,21.04,1.06,36.72,6.89,52.72,51.54,31.37,81.5-6.08,8.54-14.67,15.1-24.67,18.5-1.01,.35-1.01,.71-.01,1.08Z"/>
  <g>
    <path class="cls-1" d="M607.5,212.56c-7.3-6.43-16.14-10.88-26.54-13.36,10.39-4.7,18-11.93,22.82-21.71,4.82-9.77,7.24-20.47,7.24-32.1s-3.1-22.7-9.28-31.73c-6.19-9.03-14.91-16.08-26.16-21.15-11.26-5.07-24.68-7.61-40.27-7.61h-76.82v252.37h87.96c16.82,0,31.55-2.97,44.16-8.91,12.62-5.94,22.39-14.22,29.32-24.87,6.92-10.64,10.39-23.13,10.39-37.48,0-11.13-1.98-21.21-5.94-30.25-3.96-9.03-9.59-16.76-16.89-23.2Zm-113.01-96.49h37.11c14.1,0,24.99,3.03,32.66,9.09,7.67,6.07,11.5,14.79,11.5,26.17,0,12.13-3.78,21.28-11.32,27.46-7.55,6.19-16.89,9.28-28.02,9.28h-41.94V116.06Zm86.47,177.77c-8.66,8.16-19.8,12.25-33.4,12.25h-53.07v-85.36h56.04c7.92,0,15.15,1.86,21.71,5.57,6.55,3.71,11.81,8.66,15.77,14.85,3.95,6.19,5.94,13.24,5.94,21.15,0,12.87-4.33,23.38-12.99,31.55Z"/>
    <path class="cls-1" d="M780.63,199.2c-7.18-9.4-15.84-16.57-25.98-21.53-10.15-4.95-21.4-7.42-33.77-7.42-15.34,0-29.08,4.02-41.2,12.06-12.13,8.04-21.59,18.5-28.39,31.36-6.81,12.87-10.21,26.85-10.21,41.94s3.4,28.76,10.21,41.75c6.8,12.99,16.27,23.51,28.39,31.55,12.12,8.04,25.85,12.06,41.2,12.06,8.41,0,16.33-1.11,23.75-3.34,7.42-2.23,14.23-5.57,20.41-10.02,6.18-4.45,11.38-9.65,15.59-15.59v25.24h36V173.96h-36v25.24Zm-6.68,82.58c-4.45,8.04-10.52,14.54-18.19,19.48-7.67,4.95-16.46,7.42-26.35,7.42s-18.68-2.47-26.35-7.42c-7.67-4.95-13.73-11.44-18.19-19.48-4.45-8.04-6.68-16.76-6.68-26.16s2.23-18.12,6.68-26.16c4.45-8.04,10.51-14.53,18.19-19.48,7.67-4.95,16.45-7.42,26.35-7.42s18.68,2.48,26.35,7.42c7.67,4.95,13.73,11.45,18.19,19.48,4.45,8.04,6.68,16.76,6.68,26.16s-2.23,18.13-6.68,26.16Z"/>
    <path class="cls-1" d="M957.65,249.67c-4.7-2.47-10.09-4.51-16.15-6.12-6.06-1.61-11.88-3.03-17.44-4.27-5.57-1.23-10.21-2.23-13.92-2.97-6.44-1.73-12.37-4.02-17.81-6.87-5.44-2.84-8.16-7.48-8.16-13.92s2.84-11.13,8.54-14.1c5.69-2.97,11.88-4.45,18.56-4.45,5.19,0,9.89,.56,14.1,1.67,4.2,1.11,7.79,3.22,10.76,6.31,2.97,3.1,5.07,7.24,6.31,12.43h36.74c-3.22-17.57-10.83-29.81-22.82-36.74-12-6.92-26.66-10.39-43.98-10.39-12.87,0-24.19,1.86-33.96,5.57-9.78,3.71-17.44,9.28-23.01,16.7s-8.35,16.7-8.35,27.83c0,7.92,2.04,14.66,6.12,20.23,4.08,5.57,9.46,10.21,16.14,13.92,4.95,2.48,10.58,4.64,16.89,6.49,6.31,1.86,12.68,3.47,19.11,4.82,6.43,1.36,12,2.78,16.7,4.27,8.17,2.23,14.41,5.14,18.74,8.72,4.33,3.59,6.49,7.98,6.49,13.17,0,7.42-2.73,13.05-8.16,16.89-5.45,3.84-13.24,5.75-23.38,5.75-5.69,0-11.13-.74-16.33-2.23-5.2-1.48-9.71-4.27-13.55-8.35-3.84-4.08-6.37-9.96-7.61-17.63h-36.74c1.48,12.62,5.38,23.01,11.69,31.18,6.31,8.16,14.66,14.23,25.05,18.18,10.39,3.96,22.39,5.94,36,5.94s25.3-1.8,35.81-5.38c10.51-3.58,18.86-9.15,25.05-16.7,6.18-7.54,9.28-17.5,9.28-29.88,0-9.65-2.35-17.81-7.05-24.49-4.7-6.68-11.26-11.88-19.67-15.59Z"/>
    <path class="cls-1" d="M1128.37,180.83c-13.12-7.54-27.59-11.32-43.42-11.32s-31.55,3.78-44.91,11.32c-13.36,7.55-24,17.76-31.92,30.62-7.92,12.87-11.88,27.46-11.88,43.79s4.08,31.98,12.25,44.72c8.17,12.75,19.11,22.64,32.84,29.69,13.73,7.05,29.26,10.58,46.58,10.58,9.4,0,18.68-1.36,27.83-4.08,9.15-2.72,17.69-6.49,25.61-11.32,7.92-4.83,14.47-10.45,19.67-16.89l-23.75-20.04c-3.71,4.7-8.23,8.66-13.55,11.88-5.32,3.22-11.26,5.75-17.81,7.61-6.56,1.86-13.67,2.78-21.34,2.78-8.91,0-17.26-2.29-25.05-6.87-7.79-4.58-14.1-11.07-18.93-19.48-3.29-5.73-5.43-12.18-6.48-19.3h138.04v-10.39c0-16.08-4.02-30.43-12.06-43.05-8.04-12.62-18.62-22.7-31.73-30.25Zm-93.11,56.97c1.04-4.26,2.5-8.29,4.41-12.06,4.2-8.29,10.21-14.85,18-19.67,7.79-4.83,17.01-7.24,27.65-7.24,13.11,0,24.37,3.77,33.77,11.32,9.4,7.55,15.09,16.76,17.07,27.65h-100.91Z"/>
    <path class="cls-1" d="M1249.92,209.96c7.54-4.7,16.27-7.05,26.16-7.05s18.61,2.91,26.91,8.72c8.29,5.82,13.92,13.55,16.89,23.2h37.11c-2.48-12.86-7.67-24.12-15.59-33.77-7.92-9.65-17.63-17.19-29.13-22.64-11.5-5.44-24.31-8.16-38.41-8.16-16.33,0-30.99,3.9-43.98,11.69-12.99,7.79-23.26,18.13-30.8,30.99-7.55,12.87-11.32,27.09-11.32,42.68,0,12.37,2.28,23.75,6.87,34.14,4.58,10.39,10.76,19.36,18.56,26.91,7.79,7.55,16.76,13.49,26.91,17.81,10.14,4.33,20.9,6.49,32.29,6.49,13.6,0,26.04-2.41,37.3-7.24,11.26-4.82,20.9-11.75,28.95-20.78,8.04-9.03,13.79-19.61,17.26-31.73h-37.85c-3.47,8.66-9.16,15.4-17.07,20.23-7.92,4.83-16.7,7.24-26.35,7.24-10.15,0-18.87-2.47-26.16-7.42-7.3-4.95-12.93-11.5-16.89-19.67-3.96-8.16-5.94-16.82-5.94-25.98,0-9.65,2.16-18.49,6.49-26.54,4.33-8.04,10.26-14.41,17.81-19.11Z"/>
    <path class="cls-1" d="M1507.48,178.78c-9.03-5.69-20.48-8.54-34.33-8.54-11.63,0-21.71,2.78-30.25,8.35-8.54,5.57-15.53,12.43-20.97,20.6V58.91h-35.63V337.26h35.63v-72.74c0-12.62,1.73-23.57,5.19-32.85,3.46-9.28,8.72-16.45,15.77-21.53,7.05-5.07,15.89-7.61,26.54-7.61,7.42,0,13.23,1.61,17.44,4.82,4.2,3.22,7.24,7.55,9.09,12.99,1.86,5.44,2.78,11.38,2.78,17.81v99.09h35.63v-99.09c0-13.6-2.23-25.48-6.68-35.63-4.45-10.14-11.2-18.06-20.23-23.75Z"/>
    <path class="cls-1" d="M1700.28,199.2c-7.18-9.4-15.84-16.57-25.98-21.53-10.15-4.95-21.4-7.42-33.77-7.42-15.34,0-29.08,4.02-41.2,12.06-12.13,8.04-21.59,18.5-28.39,31.36-6.81,12.87-10.21,26.85-10.21,41.94s3.4,28.76,10.21,41.75c6.8,12.99,16.27,23.51,28.39,31.55,12.12,8.04,25.85,12.06,41.2,12.06,8.41,0,16.33-1.11,23.75-3.34,7.42-2.23,14.23-5.57,20.41-10.02,6.18-4.45,11.38-9.65,15.59-15.59v25.24h36V173.96h-36v25.24Zm-6.68,82.58c-4.45,8.04-10.52,14.54-18.19,19.48-7.67,4.95-16.46,7.42-26.35,7.42s-18.68-2.47-26.35-7.42c-7.67-4.95-13.73-11.44-18.19-19.48-4.45-8.04-6.68-16.76-6.68-26.16s2.23-18.12,6.68-26.16c4.45-8.04,10.51-14.53,18.19-19.48,7.67-4.95,16.45-7.42,26.35-7.42s18.68,2.48,26.35,7.42c7.67,4.95,13.73,11.45,18.19,19.48,4.45,8.04,6.68,16.76,6.68,26.16s-2.23,18.13-6.68,26.16Z"/>
    <path class="cls-1" d="M1798.62,103.45c-6.19,0-11.38,2.11-15.59,6.31-4.21,4.21-6.31,9.41-6.31,15.59s2.1,11.08,6.31,15.4c4.2,4.33,9.4,6.49,15.59,6.49s11.07-2.16,15.4-6.49c4.33-4.33,6.49-9.46,6.49-15.4s-2.17-11.38-6.49-15.59c-4.33-4.2-9.46-6.31-15.4-6.31Z"/>
    <rect class="cls-1" x="1780.81" y="173.96" width="35.63" height="163.3"/>
    <path class="cls-1" d="M2002,201.79c-4.45-10.14-11.2-17.94-20.23-23.38-9.03-5.44-20.23-8.16-33.59-8.16-11.63,0-21.84,2.78-30.62,8.35-8.79,5.57-15.9,12.43-21.34,20.6v-25.24h-35.63v163.3h35.63v-72.74c0-11.38,1.73-21.77,5.19-31.18,3.46-9.4,8.72-16.89,15.77-22.45,7.05-5.57,15.89-8.35,26.54-8.35,7.42,0,13.23,1.61,17.44,4.82,4.2,3.22,7.24,7.55,9.09,12.99,1.86,5.44,2.78,11.38,2.78,17.81v99.09h35.63v-99.09c0-14.1-2.23-26.22-6.68-36.37Z"/>
  </g>
</svg>